<?xml version="1.0" encoding="UTF-8"?>
<!DOCTYPE svg PUBLIC "-//W3C//DTD SVG 1.1//EN" "http://www.w3.org/Graphics/SVG/1.1/DTD/svg11.dtd">
<svg xmlns="http://www.w3.org/2000/svg" version="1.1" width="358px" height="118px" style="shape-rendering:geometricPrecision; text-rendering:geometricPrecision; image-rendering:optimizeQuality; fill-rule:evenodd; clip-rule:evenodd" xmlns:xlink="http://www.w3.org/1999/xlink">
<g><path style="opacity:1" fill="#fefefe" d="M -0.5,-0.5 C 118.833,-0.5 238.167,-0.5 357.5,-0.5C 357.5,38.8333 357.5,78.1667 357.5,117.5C 238.167,117.5 118.833,117.5 -0.5,117.5C -0.5,78.1667 -0.5,38.8333 -0.5,-0.5 Z"/></g>
<g><path style="opacity:1" fill="#b6f1f2" d="M 67.5,27.5 C 68.0431,27.56 68.3764,27.8933 68.5,28.5C 50.5123,29.4995 32.5123,29.8329 14.5,29.5C 32.1667,28.8333 49.8333,28.1667 67.5,27.5 Z"/></g>
<g><path style="opacity:1" fill="#4abbff" d="M 117.5,49.5 C 119.017,49.5106 120.184,50.1772 121,51.5C 123.919,56.3397 127.086,61.0064 130.5,65.5C 134.081,60.672 137.415,55.672 140.5,50.5C 141.325,49.6143 142.325,49.281 143.5,49.5C 143.832,58.5246 143.498,67.5246 142.5,76.5C 141.914,76.2907 141.414,75.9574 141,75.5C 140.667,69.5 140.333,63.5 140,57.5C 137.31,62.2262 134.144,66.5596 130.5,70.5C 126.856,66.5596 123.69,62.2262 121,57.5C 120.667,63.5 120.333,69.5 120,75.5C 119.586,75.9574 119.086,76.2907 118.5,76.5C 117.502,67.5246 117.168,58.5246 117.5,49.5 Z"/></g>
<g><path style="opacity:1" fill="#3db7ff" d="M 153.5,49.5 C 154.5,49.5 155.5,49.5 156.5,49.5C 156.5,58.5 156.5,67.5 156.5,76.5C 155.5,76.5 154.5,76.5 153.5,76.5C 153.5,67.5 153.5,58.5 153.5,49.5 Z"/></g>
<g><path style="opacity:1" fill="#47baff" d="M 169.5,56.5 C 169.217,55.7109 168.717,55.0442 168,54.5C 167.5,61.4921 167.334,68.4921 167.5,75.5C 166.811,76.7736 165.977,76.7736 165,75.5C 164.5,66.8397 164.334,58.1731 164.5,49.5C 165.978,49.238 167.311,49.5713 168.5,50.5C 173.475,57.3096 178.642,63.9762 184,70.5C 184.5,63.5079 184.666,56.5079 184.5,49.5C 185.5,49.5 186.5,49.5 187.5,49.5C 187.5,58.5 187.5,67.5 187.5,76.5C 185.097,76.607 183.264,75.607 182,73.5C 177.824,67.8038 173.657,62.1371 169.5,56.5 Z"/></g>
<g><path style="opacity:1" fill="#3bb6ff" d="M 196.5,49.5 C 197.5,49.5 198.5,49.5 199.5,49.5C 199.5,58.5 199.5,67.5 199.5,76.5C 198.5,76.5 197.5,76.5 196.5,76.5C 196.5,67.5 196.5,58.5 196.5,49.5 Z"/></g>
<g><path style="opacity:1" fill="#54bdff" d="M 213.5,48.5 C 217.605,48.2338 221.605,48.7338 225.5,50C 227.833,51 229.5,52.6667 230.5,55C 229.975,55.6924 229.308,56.1924 228.5,56.5C 223.85,52.687 218.516,51.5203 212.5,53C 209.141,55.0342 208.808,57.3676 211.5,60C 216.083,61.1447 220.749,61.8113 225.5,62C 232.571,65.295 233.238,69.6283 227.5,75C 222.254,76.5059 216.921,76.8392 211.5,76C 207.59,74.6472 206.257,72.1472 207.5,68.5C 211.376,73.2441 216.376,74.7441 222.5,73C 226.918,72.2766 228.251,69.9433 226.5,66C 222.284,64.7964 217.951,64.1298 213.5,64C 207.213,63.0466 205.046,59.5466 207,53.5C 208.965,51.4497 211.132,49.783 213.5,48.5 Z"/></g>
<g><path style="opacity:1" fill="#47baff" d="M 234.5,49.5 C 242.86,49.1688 251.193,49.5021 259.5,50.5C 259.291,51.086 258.957,51.586 258.5,52C 255.183,52.4983 251.85,52.665 248.5,52.5C 248.5,60.5 248.5,68.5 248.5,76.5C 247.5,76.5 246.5,76.5 245.5,76.5C 245.5,68.5 245.5,60.5 245.5,52.5C 241.833,52.5 238.167,52.5 234.5,52.5C 234.5,51.5 234.5,50.5 234.5,49.5 Z"/></g>
<g><path style="opacity:1" fill="#55beff" d="M 273.5,48.5 C 289.875,49.5869 294.708,57.5869 288,72.5C 280.326,78.1334 272.992,77.8 266,71.5C 261.025,61.2599 263.525,53.5932 273.5,48.5 Z"/></g>
<g><path style="opacity:1" fill="#4ebcff" d="M 299.5,49.5 C 305.176,49.3339 310.843,49.5006 316.5,50C 321.426,52.3529 323.26,56.1862 322,61.5C 320.581,64.2956 318.415,66.2956 315.5,67.5C 317.149,69.6499 318.982,71.6499 321,73.5C 321.749,74.635 321.583,75.635 320.5,76.5C 317.349,73.8496 314.349,71.0162 311.5,68C 308.518,67.502 305.518,67.3354 302.5,67.5C 302.5,70.5 302.5,73.5 302.5,76.5C 301.5,76.5 300.5,76.5 299.5,76.5C 299.5,67.5 299.5,58.5 299.5,49.5 Z"/></g>
<g><path style="opacity:1" fill="#3fb8ff" d="M 329.5,49.5 C 336.532,49.1697 343.532,49.503 350.5,50.5C 344.537,51.4959 338.537,51.8293 332.5,51.5C 332.5,54.8333 332.5,58.1667 332.5,61.5C 338.167,61.5 343.833,61.5 349.5,61.5C 349.5,62.5 349.5,63.5 349.5,64.5C 343.833,64.5 338.167,64.5 332.5,64.5C 332.5,67.5 332.5,70.5 332.5,73.5C 338.5,73.5 344.5,73.5 350.5,73.5C 350.5,74.5 350.5,75.5 350.5,76.5C 343.578,76.8122 336.744,76.4788 330,75.5C 329.5,66.8397 329.334,58.1731 329.5,49.5 Z"/></g>
<g><path style="opacity:1" fill="#fcfeff" d="M 273.5,51.5 C 284.797,51.0941 289.297,56.4275 287,67.5C 283.723,73.1088 278.89,74.9422 272.5,73C 267.789,68.8604 266.289,63.6938 268,57.5C 269.36,54.9774 271.193,52.9774 273.5,51.5 Z"/></g>
<g><path style="opacity:1" fill="#fafdff" d="M 302.5,52.5 C 306.846,52.3343 311.179,52.501 315.5,53C 319.01,56.048 319.343,59.3813 316.5,63C 311.934,64.3092 307.267,64.8092 302.5,64.5C 302.5,60.5 302.5,56.5 302.5,52.5 Z"/></g>
<g><path style="opacity:1" fill="#63dfe4" d="M 14.5,29.5 C 32.5123,29.8329 50.5123,29.4995 68.5,28.5C 68.3764,27.8933 68.0431,27.56 67.5,27.5C 65.1891,24.853 62.8558,22.1864 60.5,19.5C 61.3482,17.7172 62.6815,17.2172 64.5,18C 68.8808,22.0448 72.8808,26.3781 76.5,31C 72.6667,36.1667 68.1667,40.6667 63,44.5C 61.0543,44.2373 60.3877,43.2373 61,41.5C 63.5,39 66,36.5 68.5,34C 50.2597,33.1748 32.0931,33.3415 14,34.5C 16.0107,48.2218 18.6773,61.8885 22,75.5C 22.7504,76.1258 23.5838,76.6258 24.5,77C 41.5,77.6667 58.5,77.6667 75.5,77C 76.4162,76.6258 77.2496,76.1258 78,75.5C 79.6316,69.666 81.1316,63.8327 82.5,58C 67.1558,57.1671 51.8225,57.3338 36.5,58.5C 39.7139,61.3536 42.0473,64.687 43.5,68.5C 42.1266,68.6567 40.7932,68.49 39.5,68C 36,64.5 32.5,61 29,57.5C 28.3333,56.1667 28.3333,54.8333 29,53.5C 32.8333,49.6667 36.6667,45.8333 40.5,42C 42.2373,41.3877 43.2373,42.0543 43.5,44C 41.6802,46.6522 39.6802,49.1522 37.5,51.5C 36.9569,51.56 36.6236,51.8933 36.5,52.5C 52.3283,53.8265 67.9949,53.8265 83.5,52.5C 85.4268,41.0318 87.9268,29.6985 91,18.5C 91.8333,17.6667 92.6667,16.8333 93.5,16C 99.1569,15.5006 104.824,15.3339 110.5,15.5C 110.5,16.8333 110.5,18.1667 110.5,19.5C 105.238,19.1953 100.072,19.5286 95,20.5C 90.5133,39.4483 86.1799,58.4483 82,77.5C 80.786,79.0488 79.286,80.2155 77.5,81C 58.4099,81.9741 39.4099,81.6407 20.5,80C 18.2389,77.2284 16.7389,74.0618 16,70.5C 13.8928,60.8569 11.8928,51.1902 10,41.5C 9.33333,38.5 9.33333,35.5 10,32.5C 11.129,30.8588 12.629,29.8588 14.5,29.5 Z"/></g>
<g><path style="opacity:1" fill="#d8f7f8" d="M 37.5,51.5 C 52.6576,52.4962 67.9909,52.8295 83.5,52.5C 67.9949,53.8265 52.3283,53.8265 36.5,52.5C 36.6236,51.8933 36.9569,51.56 37.5,51.5 Z"/></g>
<g><path style="opacity:1" fill="#92d6ff" d="M 169.5,56.5 C 168.833,62.8333 168.167,69.1667 167.5,75.5C 167.334,68.4921 167.5,61.4921 168,54.5C 168.717,55.0442 169.217,55.7109 169.5,56.5 Z"/></g>
<g><path style="opacity:1" fill="#43b7fc" d="M 27.5,86.5 C 39.854,86.5587 43.6873,92.2254 39,103.5C 31.782,108.357 26.1153,107.023 22,99.5C 21.1138,93.9465 22.9471,89.6131 27.5,86.5 Z"/></g>
<g><path style="opacity:1" fill="#44b7fc" d="M 64.5,86.5 C 75.0419,85.5394 79.5419,90.2061 78,100.5C 73.6604,106.864 68.1604,108.031 61.5,104C 56.9472,97.1484 57.9472,91.3151 64.5,86.5 Z"/></g>
<g><path style="opacity:1" fill="#f3fafe" d="M 29.5,90.5 C 35.3296,90.1605 37.8296,92.8272 37,98.5C 33.3333,103.833 29.6667,103.833 26,98.5C 25.3333,97.1667 25.3333,95.8333 26,94.5C 27.1022,93.051 28.2689,91.7177 29.5,90.5 Z"/></g>
<g><path style="opacity:1" fill="#f4fafe" d="M 66.5,90.5 C 72.3296,90.1605 74.8296,92.8272 74,98.5C 70.3333,103.833 66.6667,103.833 63,98.5C 62.3333,97.1667 62.3333,95.8333 63,94.5C 64.3756,93.2949 65.5423,91.9616 66.5,90.5 Z"/></g>
</svg>
